<svg id="bootstrap-seeklogo.com" xmlns="http://www.w3.org/2000/svg" width="510" height="510" viewBox="0 0 510 510">
  <path id="Path_11" data-name="Path 11" d="M0,444.24A65.757,65.757,0,0,0,65.76,510H444.24A65.757,65.757,0,0,0,510,444.24V65.76A65.757,65.757,0,0,0,444.24,0H65.76A65.757,65.757,0,0,0,0,65.76Z" fill="#563d7c"/>
  <path id="Path_12" data-name="Path 12" d="M139.974,175.486V103.262h63.574a98.989,98.989,0,0,1,17.515,1.514,43.75,43.75,0,0,1,14.921,5.406,28.794,28.794,0,0,1,10.379,10.812q3.892,6.92,3.892,17.732,0,19.462-11.677,28.111t-29.841,8.65ZM72.075,50.5V359.289H221.712a157.894,157.894,0,0,0,40.437-5.19,108.128,108.128,0,0,0,35.031-16A78.8,78.8,0,0,0,321.615,310.2q9.082-17.083,9.082-40.437,0-28.976-14.055-49.519t-42.6-28.76q20.759-9.947,31.355-25.516t10.6-38.923q0-21.624-7.136-36.328a59.336,59.336,0,0,0-20.11-23.57q-12.974-8.866-31.138-12.758a192.309,192.309,0,0,0-40.22-3.892Zm67.9,256.027V221.761h73.954q22.056,0,35.463,10.163T262.8,265.874q0,12.109-4.109,19.894a32.646,32.646,0,0,1-11.028,12.326,46.7,46.7,0,0,1-16,6.487,90.612,90.612,0,0,1-19.029,1.946Z" transform="translate(71.512 50.105)" fill="#fff"/>
</svg>
