<svg id="cocoapods" xmlns="http://www.w3.org/2000/svg" width="509.348" height="509.35" viewBox="0 0 509.348 509.35">
  <path id="Path_15" data-name="Path 15" d="M509.348,509.35H0V0H509.348Z" fill="#fa2a00"/>
  <path id="Path_16" data-name="Path 16" d="M263.629,202.109c-7.654,41.993-43.718,76.346-99.351,76.346-66.456,0-106.468-48.813-106.468-104.445,0-54.516,38.031-104.5,105.887-104.5,58.206,0,94.272,36.617,99.648,82.316H215.371c-4.245-23.272-21.86-40.86-51.091-40.86-38.059,0-59.622,30.092-59.622,63.045,0,34.905,24.124,63.019,60.188,63.019,26.683,0,44.283-15.337,49.958-34.919h48.827ZM319.356,74.15,290.037,86.712l36.743,85.924-36.757,85.952,29.33,12.537,24.661-58.08.128.267L361.2,172.637Z" transform="translate(57.505 69.141)" fill="#fff"/>
</svg>
