<svg xmlns="http://www.w3.org/2000/svg" width="125.184" height="125.185" viewBox="0 0 125.184 125.185">
  <g id="javascript" transform="translate(-1.408 -1.408)">
    <path id="Path_5" data-name="Path 5" d="M1.408,1.408H126.592V126.593H1.408Z" fill="#f0db4f"/>
    <path id="Path_6" data-name="Path 6" d="M116.347,96.736c-.917-5.711-4.641-10.508-15.672-14.981-3.832-1.761-8.1-3.022-9.377-5.926a6.461,6.461,0,0,1-.226-3.665c.821-3.32,4.784-4.355,7.925-3.4a8.72,8.72,0,0,1,5.093,4.724c5.4-3.5,5.391-3.475,9.163-5.879a23.422,23.422,0,0,0-3.022-4.045c-3.249-3.629-7.676-5.5-14.756-5.355l-3.688.477a16.735,16.735,0,0,0-8.877,5.235c-5.926,6.724-4.236,18.492,2.975,23.335,7.1,5.332,17.54,6.545,18.873,11.531,1.3,6.1-4.486,8.08-10.234,7.378-4.236-.881-6.592-3.034-9.139-6.949-4.688,2.713-4.688,2.713-9.508,5.485,1.143,2.5,2.344,3.63,4.26,5.795,9.068,9.2,31.76,8.746,35.83-5.176a17.218,17.218,0,0,0,.38-8.581ZM69.462,58.943H57.753l-.048,30.272c0,6.438.333,12.34-.714,14.149-1.713,3.558-6.152,3.117-8.175,2.427-2.059-1.012-3.106-2.451-4.319-4.485a5.9,5.9,0,0,0-.667-1.071l-9.52,5.83a18.811,18.811,0,0,0,6.9,7.9c4.462,2.678,10.459,3.5,16.731,2.059a14.776,14.776,0,0,0,9.448-7.4c2.666-4.915,2.094-10.864,2.07-17.444C69.521,80.445,69.462,69.712,69.462,58.943Z" fill="#323330"/>
  </g>
</svg>
