<svg xmlns="http://www.w3.org/2000/svg" width="115.455" height="121.965" viewBox="0 0 115.455 121.965">
  <g id="jquery" transform="translate(-6.273 -1.634)">
    <path id="Path_1" data-name="Path 1" d="M27.758,20.421c-7.352,10.565-6.437,24.312-.82,35.54l.411.8.263.506.164.291.293.524c.174.307.353.612.536.919l.306.5q.3.489.622.973l.265.409c.293.437.592.872.9,1.3l.026.033.152.205c.267.368.542.732.821,1.093l.309.393c.249.313.5.623.759.934l.29.346c.345.406.7.812,1.057,1.208l.021.022.041.045c.351.383.71.758,1.075,1.133l.344.347c.282.284.569.563.858.841l.351.334c.387.364.777.722,1.176,1.07l.018.016.205.174q.527.458,1.068.9l.442.353c.294.235.591.468.89.7l.477.361q.5.364,1,.717l.363.258.1.072c.318.22.645.431.97.642l.42.28c.5.315,1.007.628,1.519.93l.42.237c.377.217.756.431,1.14.639l.631.326.816.424.188.091.334.161c.427.2.858.4,1.293.6l.273.122q.747.327,1.508.628l.368.144c.469.182.945.359,1.423.527l.179.062c.524.184,1.054.353,1.587.52l.383.114a15.492,15.492,0,0,0,1.638.462c35.553,6.483,45.88-21.364,45.88-21.364-8.674,11.3-24.069,14.28-38.656,10.962-.553-.125-1.089-.3-1.628-.456l-.406-.124q-.789-.242-1.568-.51l-.215-.077c-.465-.164-.924-.336-1.382-.513l-.388-.152c-.5-.2-1-.4-1.492-.62l-.3-.133c-.423-.191-.842-.384-1.259-.585l-.364-.175c-.327-.159-.65-.328-.974-.5l-.649-.341c-.4-.21-.782-.43-1.167-.654l-.394-.219q-.77-.455-1.52-.932l-.41-.273c-.363-.234-.725-.473-1.081-.719l-.349-.245c-.344-.242-.685-.489-1.022-.738l-.453-.343c-.31-.237-.618-.476-.922-.721l-.411-.33q-.582-.477-1.149-.969l-.126-.1c-.409-.359-.811-.728-1.208-1.1l-.34-.328c-.294-.279-.584-.561-.868-.851l-.34-.34q-.543-.555-1.065-1.126l-.053-.057c-.368-.4-.728-.813-1.08-1.229l-.283-.336c-.263-.316-.523-.638-.777-.961l-.285-.355c-.307-.4-.6-.793-.9-1.195-8.1-11.047-11.008-26.283-4.535-38.795m17.081-1.626c-5.316,7.65-5.028,17.893-.88,25.983a33.747,33.747,0,0,0,2.351,3.925,18.59,18.59,0,0,0,2.737,3.418c.383.422.784.834,1.193,1.238l.314.311c.4.385.8.764,1.218,1.132l.05.043.012.012c.462.4.939.794,1.423,1.178l.323.252c.486.372.981.738,1.489,1.087l.043.033.68.447.322.213c.363.233.73.459,1.1.676l.156.092c.322.185.648.367.975.545l.347.18.682.354.1.047c.469.23.941.453,1.424.663l.314.13c.386.163.775.323,1.167.473l.5.184c.356.132.712.253,1.072.373l.484.155a12.031,12.031,0,0,0,1.549.448c27.45,4.547,33.787-16.588,33.787-16.588-5.712,8.228-16.775,12.153-28.58,9.089q-.786-.207-1.555-.449l-.467-.151c-.365-.117-.728-.243-1.087-.374l-.491-.183q-.591-.228-1.171-.473l-.315-.133q-.728-.316-1.432-.666l-.718-.365-.414-.213c-.306-.166-.61-.338-.909-.514l-.217-.123c-.372-.217-.738-.44-1.1-.672l-.332-.221-.712-.472c-.506-.349-1-.714-1.484-1.085l-.334-.264a33.093,33.093,0,0,1-11.21-15.977A24.794,24.794,0,0,1,54.924,5.386m14.847-.518A16,16,0,0,0,68.5,20.3a21.735,21.735,0,0,0,12.477,11.66l.682.235.3.1a8.332,8.332,0,0,0,.978.282C98.1,35.505,102.209,24.8,103.3,23.222c-3.6,5.185-9.653,6.43-17.079,4.627-.586-.142-1.231-.354-1.8-.555a22.3,22.3,0,0,1-2.134-.886,22.19,22.19,0,0,1-3.741-2.282C71.908,19.084,67.781,9.467,72.117,1.634" fill="#0868ac"/>
    <path id="Path_2" data-name="Path 2" d="M66.359,96.295H62.133a.556.556,0,0,0-.517.417l-1.5,6.94-1.5,6.94a.554.554,0,0,1-.516.417H55.109c-2.959,0-2.617-2.047-2.011-4.851l.018-.085.066-.354.012-.066.135-.72.145-.771.154-.785.682-3.332.683-3.332a.336.336,0,0,0-.341-.419H50.315a.55.55,0,0,0-.514.418l-.933,4.424-.932,4.425,0,.006-.086.412c-1.074,4.9-.79,9.58,5.048,9.727l.17,0h9.163a.554.554,0,0,0,.516-.417L64.721,106l1.976-9.29A.332.332,0,0,0,66.359,96.295ZM21.1,96.246h-4.64a.562.562,0,0,0-.521.416L15.5,98.6l-.44,1.942a.327.327,0,0,0,.333.416h4.676a.556.556,0,0,0,.518-.417l.425-1.941.425-1.941A.33.33,0,0,0,21.1,96.246Zm-1.346,6.044H15.08a.563.563,0,0,0-.521.416l-.657,2.91-.656,2.909-.183.834-.631,2.97L11.8,115.3c-.049.229-.15.6-.225.821,0,0-.874,2.6-2.343,2.57l-.184,0-1.271-.023h0a.558.558,0,0,0-.524.407l-.485,2.039-.484,2.038a.327.327,0,0,0,.326.42c.833.01,2.7.031,3.828.031,3.669,0,5.6-2.033,6.843-7.883L18.733,109l1.361-6.3a.331.331,0,0,0-.337-.415Zm86.117-1.574-.194-.8-.191-.82-.1-.414c-.38-1.477-1.5-2.328-3.917-2.328l-3.77,0-3.472,0H90.326a.552.552,0,0,0-.515.417l-.173.816-.2.964-.057.271-1.759,8.24-1.67,7.822a1.826,1.826,0,0,0-.038.626c.028.115.479.209.713.209h3.524a2.211,2.211,0,0,0,.66-.094c.128-.052.317-.513.364-.742l.626-3.1.627-3.1v0l.084-.413.76-3.56.671-3.144a.555.555,0,0,1,.515-.417l11.089,0a.322.322,0,0,0,.33-.414Zm14.275-7.24-.854,0h-3.549a.9.9,0,0,0-.667.353l-7.849,11.5c-.132.194-.283.166-.335-.062l-.578-2.533a.562.562,0,0,0-.522-.416H100.75a.3.3,0,0,0-.31.409l2.261,7.921a1.878,1.878,0,0,1,.011.824l-.985,3.833a.314.314,0,0,0,.32.413h4.987a.58.58,0,0,0,.532-.413l.986-3.833a2.52,2.52,0,0,1,.363-.755l12.742-16.911c.142-.188.065-.341-.169-.339Zm-40.086,9.919v0a.514.514,0,0,1-.5.441h-6.4a.275.275,0,0,1-.3-.336l.006-.015,0,0,0-.021.029-.109a4.008,4.008,0,0,1,4.194-2.69c2.634,0,3.148,1.285,2.969,2.732Zm-1.877-7.384c-8.211,0-10.157,4.984-11.249,10.015-1.091,5.128-1,9.921,7.5,9.921h1.346l1.02,0h.018c2.244-.009,4.5-.026,5.406-.033a.553.553,0,0,0,.509-.42l.344-1.681.067-.327.41-2.006a.335.335,0,0,0-.341-.418H75.577c-3.039,0-3.941-.807-3.608-3.181H84.187a.5.5,0,0,0,.445-.315l.029-.106h0c1.813-6.839,1.293-11.445-6.474-11.446Zm-38.81,7.358-.116.409h0l-.922,3.268-.922,3.267a.6.6,0,0,1-.543.411h-4.88c-3.7,0-4.6-2.9-3.7-7.166.9-4.368,2.668-7.083,6.312-7.358,4.98-.376,5.976,3.126,4.773,7.168Zm3.348,7.105a54.726,54.726,0,0,0,2.823-8.814c.713-4.319-1.45-10.585-9.8-10.585-8.306,0-11.914,5.981-13.29,12.484-1.376,6.55.427,12.293,8.686,12.246l6.516-.024,6.089-.022a.59.59,0,0,0,.534-.414l1.061-4.046a.317.317,0,0,0-.319-.416L44,110.877l-1.017-.006a.261.261,0,0,1-.289-.3Zm41.12-3.741a.28.28,0,1,1-.28-.279A.28.28,0,0,1,83.844,106.733Z" fill="#131b28"/>
  </g>
</svg>
