<svg xmlns="http://www.w3.org/2000/svg" xmlns:xlink="http://www.w3.org/1999/xlink" width="509" height="509" viewBox="0 0 509 509">
  <defs>
    <clipPath id="clip-path">
      <rect id="Rectangle_7" data-name="Rectangle 7" width="509" height="509" transform="translate(4978 9449)" fill="#fff" stroke="#707070" stroke-width="1"/>
    </clipPath>
  </defs>
  <g id="Mask_Group_4" data-name="Mask Group 4" transform="translate(-4978 -9449)" clip-path="url(#clip-path)">
    <g id="npm" transform="translate(4982 9605)">
      <path id="Path_33" data-name="Path 33" d="M0,0H505.349V168.45H252.675v28.075h-112.3V168.45H0ZM28.075,140.375h56.15V56.15H112.3v84.225h28.075V28.075H28.075ZM168.45,28.075V168.45H224.6V140.375h56.15V28.075ZM224.6,56.15h28.075V112.3H224.6Zm84.225-28.075v112.3h56.15V56.15h28.075v84.225h28.075V56.15H449.2v84.225h28.075V28.075Z" fill="#cb3837"/>
      <path id="Path_34" data-name="Path 34" d="M1,113.3H57.15V29.075H85.225V113.3H113.3V1H1Z" transform="translate(27.075 27.075)" fill="#fff"/>
      <path id="Path_35" data-name="Path 35" d="M6,1V141.375H62.15V113.3H118.3V1ZM90.225,85.225H62.15V29.075H90.225Z" transform="translate(162.45 27.075)" fill="#fff"/>
      <path id="Path_36" data-name="Path 36" d="M11,1V113.3H67.15V29.075H95.225V113.3H123.3V29.075h28.075V113.3H179.45V1Z" transform="translate(297.824 27.075)" fill="#fff"/>
    </g>
  </g>
</svg>
