<svg xmlns="http://www.w3.org/2000/svg" width="512.503" height="512.484" viewBox="0 0 512.503 512.484">
  <g id="python" transform="translate(-4.563 -5)">
    <path id="Path_13" data-name="Path 13" d="M267.337,5c-20.967.053-35.507,1.9-53.1,4.952-51.891,9.008-61.321,28.026-61.321,62.954v53.471H274.29v26.973H89.643c-35.56,0-66.694,16.753-76.546,56.9-11.116,46.1-11.643,74.965,0,123.063,8.85,35.876,28.29,62.8,63.849,62.8h48.993V327.251c0-39.985,36.245-79.5,77.757-79.5h97.565c34.032,0,67.432-25.129,67.432-59.055V72.907c0-32.873-23.706-57.475-56.9-63.007C312.642,9.848,288.146,4.9,267.337,5ZM200.116,58.947a20.23,20.23,0,1,1,0,40.459,20.23,20.23,0,1,1,0-40.459Z" transform="translate(0 0)" fill="#0277bd"/>
    <path id="Path_14" data-name="Path 14" d="M116.921,405.1c20.967-.053,35.507-1.9,53.1-4.952,51.891-9.008,61.321-28.026,61.321-62.954V283.727H109.967V256.754h184.7c35.507,0,66.642-16.753,76.493-56.9,11.168-46.1,11.643-74.965,0-123.063C362.309,40.92,342.87,14,307.31,14H258.317V82.854c0,39.985-36.245,79.5-77.757,79.5H82.994c-34.032,0-67.432,25.129-67.432,59.055V337.2c0,32.873,23.706,57.475,56.9,63.007C71.615,400.257,96.112,405.209,116.921,405.1Zm67.221-53.945a20.23,20.23,0,1,1,0-40.459,20.23,20.23,0,1,1,0,40.459Z" transform="translate(137.351 112.379)" fill="#ffc107"/>
  </g>
</svg>
