<svg xmlns="http://www.w3.org/2000/svg" xmlns:xlink="http://www.w3.org/1999/xlink" width="509.519" height="509.523" viewBox="0 0 509.519 509.523">
  <defs>
    <clipPath id="clip-path">
      <path id="Path_22" data-name="Path 22" d="M0,0H509.519V509.523H0Z"/>
    </clipPath>
  </defs>
  <g id="wordpress-blue" clip-path="url(#clip-path)">
    <path id="Path_17" data-name="Path 17" d="M899.822,85.738h-88.4v9.378c27.65,0,32.1,5.926,32.1,40.987v63.219c0,35.061-4.437,41.486-32.1,41.486-21.225-2.965-35.556-14.322-55.309-36.055L733.4,180.064c30.611-5.439,46.909-24.694,46.909-46.427,0-27.156-23.2-47.9-66.666-47.9H626.728v9.378c27.65,0,32.1,5.926,32.1,40.987v63.219c0,35.061-4.441,41.486-32.1,41.486v9.382H725v-9.382c-27.646,0-32.1-6.425-32.1-41.486v-17.77h8.4l54.819,68.638H899.827c70.617,0,101.241-37.527,101.241-82.473S970.444,85.738,899.823,85.738Zm-206.915,80.49V100.555h20.244c22.219,0,32.1,15.308,32.1,33.086,0,17.287-9.881,32.591-32.1,32.591Zm208.4,68.65h-3.46c-17.774,0-20.244-4.437-20.244-27.156V100.555h23.7c51.359,0,60.732,37.527,60.732,66.666C962.043,197.343,952.661,234.878,901.307,234.878ZM351.67,184.509,385.742,83.755c9.881-29.135,5.439-37.523-26.17-37.523V36.351h92.841v9.881c-31.106,0-38.517,7.4-50.86,43.453l-56.3,168.9h-6.417L288.456,104.007,237.1,258.582h-6.425L175.862,89.689c-11.852-36.051-19.753-43.453-48.4-43.453V36.355H237.1v9.881c-29.143,0-37.045,6.912-26.669,37.523l33.086,100.754L293.388,36.355h9.39L351.67,184.509Zm167.9,72.093c-54.319,0-98.767-40-98.767-88.894,0-48.4,44.447-88.4,98.767-88.4s98.767,40,98.767,88.4C618.336,216.605,573.893,256.6,519.569,256.6Zm0-161.973c-45.428,0-61.239,40.979-61.239,73.083,0,32.6,15.811,73.091,61.239,73.091,45.932,0,61.734-40.492,61.734-73.091,0-32.1-15.8-73.083-61.734-73.083Z" transform="translate(402.607 114.818)" fill="#00749a"/>
    <path id="Path_18" data-name="Path 18" d="M452.759,240.312v9.877H339.67v-9.877c33.09,0,39.016-8.4,39.016-57.788v-79c0-49.392-5.926-57.285-39.016-57.285V36.35H441.892c50.86,0,79.022,26.174,79.022,61.244,0,34.075-28.158,60.74-79.022,60.74H413.739v24.191c0,49.4,5.926,57.788,39.02,57.788ZM441.892,54.128H413.739v85.933h28.154c27.655,0,40.492-19.258,40.492-42.468C482.389,73.89,469.551,54.128,441.892,54.128ZM860.172,203.771l-2.474,8.887c-4.437,16.3-9.881,22.224-44.942,22.224H805.84c-25.675,0-30.121-5.926-30.121-40.983V171.184c38.521,0,41.486,3.452,41.486,29.135h9.386v-73.59h-9.386c0,25.679-2.965,29.135-41.486,29.135V100.559h27.156c35.069,0,40.5,5.926,44.942,22.224l2.479,9.382h7.893l-3.452-46.418H709.543v9.378c27.65,0,32.1,5.926,32.1,40.987v63.215c0,32.075-3.772,40.155-25.575,41.311-20.722-3.169-34.949-14.468-54.415-35.88l-22.718-24.69c30.62-5.439,46.917-24.694,46.917-46.426,0-27.156-23.209-47.9-66.666-47.9H532.271v9.378c27.65,0,32.1,5.926,32.1,40.987v63.219c0,35.061-4.441,41.486-32.1,41.486v9.382h98.276v-9.382c-27.646,0-32.1-6.425-32.1-41.486v-17.77h8.4l54.814,68.638H864.626l2.965-46.414-7.419-.008Zm-261.729-37.54V100.559h20.244c22.224,0,32.1,15.308,32.1,33.086,0,17.287-9.881,32.591-32.1,32.591Zm361.976,90.374c-19.753,0-37.041-10.367-44.447-16.792-2.474,2.474-6.912,9.881-7.9,16.792h-9.386V188.459h9.877c3.955,32.6,26.665,51.853,55.8,51.853,15.8,0,28.644-8.891,28.644-23.7,0-12.838-11.353-22.718-31.605-32.1L933.255,171.18c-19.758-9.39-34.566-25.692-34.566-47.412,0-23.7,22.223-43.948,52.843-43.948,16.3,0,30.121,5.93,38.521,12.842,2.466-1.979,4.94-7.411,6.421-13.341h9.382V137.6H995.484c-3.46-23.213-16.3-42.472-42.468-42.472-13.827,0-26.669,7.9-26.669,20.252,0,12.838,10.367,19.749,34.075,30.611l27.156,13.332c23.708,11.357,33.086,29.638,33.086,44.451,0,31.106-27.16,52.831-60.245,52.831Zm152.1,0c-19.757,0-37.045-10.367-44.447-16.792-2.47,2.474-6.912,9.881-7.893,16.792h-9.386V188.459h9.877c3.951,32.6,26.661,51.853,55.8,51.853,15.8,0,28.644-8.891,28.644-23.7,0-12.838-11.357-22.718-31.609-32.1l-28.154-13.332c-19.753-9.39-34.566-25.692-34.566-47.412,0-23.7,22.224-43.948,52.843-43.948,16.3,0,30.117,5.93,38.521,12.842,2.466-1.979,4.936-7.411,6.413-13.341h9.386V137.6h-10.367c-3.46-23.213-16.3-42.472-42.468-42.472-13.827,0-26.673,7.9-26.673,20.252,0,12.838,10.372,19.749,34.08,30.611l27.156,13.332c23.7,11.357,33.082,29.638,33.082,44.451,0,31.106-27.16,52.831-60.242,52.831Z" transform="translate(1072.879 114.815)" fill="#464342"/>
    <g id="Group_1" data-name="Group 1">
      <path id="Path_19" data-name="Path 19" d="M8.708,227.25a218.6,218.6,0,0,0,123.173,196.7L27.63,138.306A217.719,217.719,0,0,0,8.708,227.25ZM374.8,216.222c0-27.01-9.7-45.715-18.023-60.275-11.078-18-21.458-33.248-21.458-51.25,0-20.09,15.233-38.791,36.7-38.791.969,0,1.888.121,2.836.175A218.508,218.508,0,0,0,44.655,107.217c5.128.154,9.964.258,14.064.258,22.86,0,58.245-2.774,58.245-2.774,11.781-.694,13.17,16.609,1.406,18,0,0-11.844,1.393-25.018,2.083l79.587,236.728,47.832-143.442-34.055-93.29c-11.769-.69-22.918-2.083-22.918-2.083-11.777-.69-10.4-18.7,1.381-18,0,0,36.092,2.774,57.567,2.774,22.856,0,58.245-2.774,58.245-2.774,11.79-.694,13.174,16.609,1.4,18,0,0-11.864,1.393-25.014,2.083l78.98,234.935,21.8-72.846c9.452-30.229,16.643-51.941,16.643-70.65Z" transform="translate(27.505 27.505)" fill="#00749a"/>
      <path id="Path_20" data-name="Path 20" d="M111.989,160.018,46.416,350.556a218.609,218.609,0,0,0,134.314-3.481,18.513,18.513,0,0,1-1.555-3.011ZM299.924,36.046A167.736,167.736,0,0,1,301.4,58.519c0,22.178-4.142,47.109-16.618,78.281L218.02,329.813A218.456,218.456,0,0,0,326.7,140.9,217.361,217.361,0,0,0,299.924,36.046Z" transform="translate(146.609 113.855)" fill="#00749a"/>
      <path id="Path_21" data-name="Path 21" d="M254.764,0C114.291,0,0,114.282,0,254.755c0,140.49,114.286,254.772,254.764,254.772S509.54,395.249,509.54,254.755C509.535,114.282,395.232,0,254.764,0Zm0,497.846c-134.031,0-243.082-109.051-243.082-243.09S120.728,11.686,254.764,11.686s243.07,109.042,243.07,243.07S388.787,497.846,254.764,497.846Z" fill="#00749a"/>
    </g>
  </g>
</svg>
