<svg id="adobe-xd-1" xmlns="http://www.w3.org/2000/svg" width="522.564" height="509.5" viewBox="0 0 522.564 509.5">
  <path id="Path_23" data-name="Path 23" d="M430.028,509.5H92.536A92.454,92.454,0,0,1,0,416.964V92.536A92.455,92.455,0,0,1,92.536,0H430.028a92.455,92.455,0,0,1,92.536,92.536V416.964A92.454,92.454,0,0,1,430.028,509.5Z" fill="#ff26be"/>
  <path id="Path_24" data-name="Path 24" d="M504.17,570.139H183.233A79.172,79.172,0,0,1,104.2,491.106V183.233A79.172,79.172,0,0,1,183.233,104.2H503.962a79.024,79.024,0,0,1,79.033,79.033V490.9a78.9,78.9,0,0,1-78.824,79.242Z" transform="translate(-82.42 -82.42)" fill="#2e001f"/>
  <path id="Path_25" data-name="Path 25" d="M575.761,707.3l60.973,117.138c1.087,1.735.439,3.491-1.317,3.491h-37.9c-2.4,0-3.491-.648-4.578-2.822C579,796.37,564.85,767.629,550.26,736.714h-.439c-13.064,29.18-27.445,59.886-41.366,88.627-1.087,1.735-2.174,2.4-3.93,2.4h-35.89c-2.174,0-2.4-1.735-1.3-3.052L527,711.025,469.3,596.061c-1.317-1.735,0-3.052,1.3-3.052h37.457c2.174,0,3.052.439,3.909,2.4,13.712,28.741,27.654,58.36,40.718,87.31h.439c12.625-28.741,26.567-58.569,40.07-87.1,1.087-1.735,1.735-2.822,3.93-2.822h35.053c1.735,0,2.4,1.317,1.317,3.052ZM647.415,742.8c0-50.731,33.758-90.362,87.31-90.362a95.994,95.994,0,0,1,11.329.439V595.183a2.17,2.17,0,0,1,2.174-2.174h34.406c1.735,0,2.174.648,2.174,1.735V794.635a155.5,155.5,0,0,0,1.087,21.341c0,1.317-.439,1.735-1.735,2.4a129.622,129.622,0,0,1-55.747,12.625c-47.261.188-81.018-28.971-81-88.209Zm98.618-55.726a32.731,32.731,0,0,0-12.625-2.174c-27.445,0-46.592,21.112-46.592,56.186,0,40.07,19.607,56.186,44.209,56.186,5.226,0,10.89-.648,15.029-2.4V687.07Z" transform="translate(-369.14 -468.89)" fill="#ffd9f2"/>
</svg>
